<?xml version="1.0" encoding="utf-8"?>
<!-- Generator: Adobe Illustrator 25.4.1, SVG Export Plug-In . SVG Version: 6.00 Build 0)  -->
<svg version="1.1" xmlns="http://www.w3.org/2000/svg" xmlns:xlink="http://www.w3.org/1999/xlink" x="0px" y="0px"
	 viewBox="0 0 2225.3 909.9" style="enable-background:new 0 0 2225.3 909.9;" xml:space="preserve">
<style type="text/css">
	.st0{fill:#015351;}
	.st1{fill:#F9D021;}
	.st2{fill:#26D780;}
	.st3{fill:#14DCB1;}
	.st4{fill:#F2C127;}
	.st5{fill:#005251;}
</style>
<g id="BG">
</g>
<g id="LOGO">
	<g>
		<g>
			<polygon class="st0" points="893.9,574.5 895.1,574.6 895,602.9 895.2,602.9 895.1,549.5 894.7,549.5 894.6,574.4 			"/>
		</g>
		<g>
			<g>
				<g>
					<path class="st0" d="M1086.6,493.8l-5.8-20.7h-60.3l-5.8,20.7h-41.6l57.6-170.1h39.6l57.8,170.1H1086.6z M1029.2,442.3h42.8
						l-21.4-75.6L1029.2,442.3z"/>
				</g>
				<g>
					<path class="st0" d="M1142,493.8V376.7h37.2v17c2.6-6,6.8-10.9,12.8-14.6c5.9-3.7,12.8-5.6,20.8-5.6c18.5,0,30.7,7.2,36.7,21.6
						c3.2-6.5,8.2-11.7,14.8-15.7c6.6-4,14.2-6,22.6-6c27.7,0,41.6,15.9,41.6,47.6v72.7h-37.4V428c0-15.4-5.8-23.1-17.5-23.1
						c-13.1,0-19.7,9.6-19.7,28.7v60.3h-37.4v-66.1c0-15.2-5.8-22.8-17.2-22.8c-6.5,0-11.4,2.1-14.8,6.4c-3.4,4.3-5.1,11.7-5.1,22.2
						v60.3H1142z"/>
				</g>
				<g>
					<path class="st0" d="M1469.1,429.2c0,4.9-0.3,10.3-1,16.3h-86.5c0.3,7.6,2.9,13.5,7.8,17.7c4.9,4.2,11.4,6.3,19.7,6.3
						c11.3,0,18.6-3.6,21.9-10.9h36.5c-1.8,11.5-8.1,20.9-18.8,28.1c-10.8,7.2-23.9,10.8-39.5,10.8c-19.9,0-35.6-5.5-47.1-16.5
						c-11.5-11-17.3-26.2-17.3-45.7c0-19.1,5.7-34.2,17.3-45.3c11.5-11.1,26.8-16.6,45.9-16.6c18.1,0,32.9,5.2,44.2,15.6
						C1463.4,399.2,1469.1,412.6,1469.1,429.2z M1381.6,422.4h50.8c-0.2-7.8-2.4-13.8-6.6-18c-4.2-4.2-10.3-6.3-18.2-6.3
						c-7.9,0-14.2,2.2-18.8,6.7C1384.1,409.2,1381.7,415.1,1381.6,422.4z"/>
				</g>
				<g>
					<path class="st0" d="M1486.5,493.8V376.7h37.2v24.5c1.9-8.4,6-14.9,12-19.6c6.1-4.6,12.8-6.9,20.3-6.9c3.9,0,7.1,0.3,9.7,1
						v34.5c-4.4-0.5-8.1-0.7-11.2-0.7c-20.6,0-30.9,13-30.9,39.1v45.2H1486.5z"/>
				</g>
				<g>
					<path class="st0" d="M1617,359.7c-4.4,4.4-9.9,6.6-16.5,6.6c-6.6,0-12.1-2.2-16.4-6.6c-4.3-4.4-6.4-9.7-6.4-16
						c0-6.5,2.1-11.9,6.4-16.3c4.3-4.4,9.8-6.6,16.4-6.6c6.6,0,12.2,2.2,16.5,6.7c4.4,4.5,6.6,9.8,6.6,16.2
						C1623.6,350,1621.4,355.3,1617,359.7z M1581.8,493.8V376.7h37.2v117.1H1581.8z"/>
				</g>
				<g>
					<path class="st0" d="M1699.2,497.5c-19.1,0-34.3-5.7-45.7-17.1c-11.3-11.4-17-26.4-17-45.1c0-18.6,5.7-33.6,17-45
						c11.3-11.3,26.6-17,45.7-17c17.3,0,31.4,4.3,42.3,12.9c10.9,8.6,17,20.3,18.5,35h-37.2c-2.8-11-10.5-16.5-23.3-16.5
						c-8.1,0-14.4,2.7-19,8c-4.5,5.3-6.8,12.9-6.8,22.6c0,9.7,2.3,17.3,6.8,22.6c4.5,5.3,10.9,8,19,8c12.8,0,20.6-5.2,23.3-15.6
						h37.2c-1.5,14.4-7.6,25.9-18.5,34.4C1730.6,493.2,1716.5,497.5,1699.2,497.5z"/>
				</g>
				<g>
					<path class="st0" d="M1827,497c-17,0-30.5-5.7-40.3-17.3c-9.9-11.5-14.8-26.3-14.8-44.5c0-17.8,5.1-32.6,15.3-44.2
						c10.2-11.7,23.6-17.5,40.3-17.5c8.3,0,15.6,1.8,22.1,5.3c6.5,3.6,11.3,8.4,14.6,14.6v-16.8h36.9v117.1h-36.9v-16.5
						c-3.2,5.8-8.2,10.6-14.9,14.2C1842.5,495.1,1835.1,497,1827,497z M1837.7,466.1c8.9,0,15.8-2.9,20.7-8.7
						c4.9-5.8,7.3-13.2,7.3-22.1c0-8.7-2.4-16-7.3-21.9c-4.9-5.8-11.7-8.7-20.7-8.7c-8.4,0-15.2,2.8-20.3,8.5
						c-5.1,5.7-7.7,13-7.7,22.1c0,9.1,2.5,16.5,7.7,22.2C1822.5,463.2,1829.3,466.1,1837.7,466.1z"/>
				</g>
				<g>
					<path class="st0" d="M1928.1,493.8V376.7h37.2v17c7-13.4,19.6-20.2,37.9-20.2c28.5,0,42.8,16,42.8,47.9v72.4h-37.4v-60.3
						c0-10-1.6-17.3-4.7-21.9c-3.2-4.5-8.5-6.8-15.9-6.8c-15.1,0-22.6,9.2-22.6,27.7v61.2H1928.1z"/>
				</g>
				<g>
					<path class="st0" d="M987.2,717.1V547h104v33h-64.6V626h64.6v32.3h-64.6v58.8H987.2z"/>
				</g>
				<g>
					<path class="st0" d="M1217.2,703.3c-11.7,11.7-27.5,17.5-47.3,17.5c-19.8,0-35.6-5.8-47.4-17.5c-11.8-11.7-17.7-26.6-17.7-44.7
						c0-18.1,5.9-33,17.7-44.6c11.8-11.6,27.6-17.4,47.4-17.4c19.8,0,35.5,5.8,47.3,17.4c11.7,11.6,17.6,26.5,17.6,44.6
						C1234.8,676.7,1228.9,691.6,1217.2,703.3z M1169.9,689.2c8.6,0,15.4-2.8,20.4-8.5c5-5.7,7.5-13,7.5-22.1
						c0-9.1-2.5-16.4-7.5-22.1c-5-5.7-11.8-8.5-20.4-8.5c-8.7,0-15.6,2.8-20.5,8.5c-4.9,5.7-7.4,13-7.4,22.1
						c0,9.1,2.5,16.4,7.4,22.1C1154.3,686.3,1161.2,689.2,1169.9,689.2z"/>
				</g>
				<g>
					<path class="st0" d="M1252.3,717.1V600h37.2v24.5c1.9-8.4,6-14.9,12-19.6c6.1-4.6,12.8-6.9,20.3-6.9c3.9,0,7.1,0.3,9.7,1v34.5
						c-4.4-0.5-8.1-0.7-11.2-0.7c-20.6,0-30.9,13-30.9,39.1v45.2H1252.3z"/>
				</g>
				<g>
					<path class="st0" d="M1462,652.5c0,4.9-0.3,10.3-1,16.3h-86.5c0.3,7.6,2.9,13.5,7.8,17.7c4.9,4.2,11.4,6.3,19.7,6.3
						c11.3,0,18.6-3.6,21.9-10.9h36.5c-1.8,11.5-8.1,20.9-18.8,28.1c-10.8,7.2-23.9,10.8-39.5,10.8c-19.9,0-35.6-5.5-47.1-16.5
						c-11.5-11-17.3-26.2-17.3-45.7c0-19.1,5.7-34.2,17.3-45.3c11.5-11.1,26.8-16.6,45.9-16.6c18.1,0,32.9,5.2,44.2,15.6
						C1456.3,622.5,1462,636,1462,652.5z M1374.5,645.7h50.8c-0.2-7.8-2.4-13.8-6.6-18c-4.2-4.2-10.3-6.3-18.2-6.3
						c-7.9,0-14.2,2.2-18.8,6.7C1377.1,632.5,1374.7,638.4,1374.5,645.7z"/>
				</g>
				<g>
					<path class="st0" d="M1533.1,720.8c-16.8,0-30.3-3.6-40.3-10.9c-10.1-7.3-15.1-16.6-15.1-27.9h36.9c0,4.1,1.8,7.4,5.3,10
						c3.6,2.6,8.2,3.9,13.9,3.9c4,0,7.3-1,9.8-2.9c2.5-1.9,3.8-4.6,3.8-8c0-5.3-2.8-8.7-8.5-10l-28.7-7.3
						c-9.6-2.4-16.8-6.6-21.9-12.4c-5-5.8-7.5-13-7.5-21.4c0-11,4.5-20,13.6-26.9c9.1-6.9,21.2-10.3,36.5-10.3
						c16.8,0,29.8,3.2,38.8,9.7c9,6.5,13.5,15.4,13.5,26.7h-36.7c0-4-1.4-7.2-4.3-9.5c-2.8-2.3-6.8-3.4-11.8-3.4
						c-4.1,0-7.3,0.9-9.7,2.7c-2.4,1.8-3.6,4.1-3.6,7c0,5.2,3.3,8.7,10,10.5l27.7,7.5c9.2,2.4,16.5,6.4,21.8,12
						c5.3,5.6,7.9,12.4,7.9,20.5c0,12.2-4.6,21.9-13.7,29.3C1561.5,717.1,1549,720.8,1533.1,720.8z"/>
				</g>
				<g>
					<path class="st0" d="M1669.5,688.2c5.2,0,9.5-0.2,12.9-0.7v29.6c-7.1,1.3-15.4,1.9-24.8,1.9c-4.2,0-7.9-0.2-11.2-0.7
						s-6.9-1.6-10.9-3.3c-4-1.7-7.4-4-10-6.9c-2.6-2.9-4.8-7.1-6.7-12.6c-1.9-5.5-2.8-12-2.8-19.4v-46.7h-18.5V600h18.5v-34.8h37.2
						V600h26.5v29.4h-26.5v38.9c0,7.9,1.4,13.2,4.1,15.9C1660.2,686.9,1664.2,688.2,1669.5,688.2z"/>
				</g>
				<g>
					<path class="st0" d="M1752.3,720.8c-16.8,0-30.3-3.6-40.3-10.9c-10.1-7.3-15.1-16.6-15.1-27.9h36.9c0,4.1,1.8,7.4,5.3,10
						c3.6,2.6,8.2,3.9,13.9,3.9c4,0,7.3-1,9.8-2.9c2.5-1.9,3.8-4.6,3.8-8c0-5.3-2.8-8.7-8.5-10l-28.7-7.3
						c-9.6-2.4-16.8-6.6-21.9-12.4c-5-5.8-7.5-13-7.5-21.4c0-11,4.5-20,13.6-26.9c9.1-6.9,21.2-10.3,36.5-10.3
						c16.8,0,29.8,3.2,38.8,9.7c9,6.5,13.5,15.4,13.5,26.7h-36.7c0-4-1.4-7.2-4.3-9.5c-2.8-2.3-6.8-3.4-11.8-3.4
						c-4.1,0-7.3,0.9-9.7,2.7c-2.4,1.8-3.6,4.1-3.6,7c0,5.2,3.3,8.7,10,10.5l27.7,7.5c9.2,2.4,16.5,6.4,21.8,12
						c5.3,5.6,7.9,12.4,7.9,20.5c0,12.2-4.6,21.9-13.7,29.3C1780.7,717.1,1768.2,720.8,1752.3,720.8z"/>
				</g>
			</g>
		</g>
		<path class="st1" d="M894.6,465.5"/>
		<g>
			<g>
				<path class="st2" d="M894.7,372.2v62.1l0,0l-344.3,0.8c-0.1,0-8.7-0.1-21.4-2.2s-29.7-6-46.8-13.7c-42.1-18.9-65.8-52-70.9-98.4
					c15.8,14.4,33.1,24.5,49,31.8c42.2,19,83,20.4,89.3,20.4h0.8L894.7,372.2z"/>
			</g>
			<path class="st3" d="M894.7,664.9c0,0-257.9,0.7-344.1,0.8c-0.4,0-34.2-0.4-68.2-15.7c-43.4-19.5-67.4-54.2-71.3-102.9
				c17,16.8,36.1,28.3,53.7,36.2c37.4,16.9,73.7,19.9,85.9,20.4l344-0.7V664.9z"/>
			<path class="st4" d="M894.7,434.2v156.4l0,0v-41.1l-335.2,0.8c-4,0-7.9-0.2-11.8-0.7c-27.3-3.2-123.3-21-136.1-113.5
				c14.4,12.2,34.4,25.2,48.8,31.7c43,19.3,84.4,20.4,89.5,20.5h0.1l344.8-0.9V434.2L894.7,434.2z"/>
			<g>
				<path class="st0" d="M672,462"/>
			</g>
			<path class="st5" d="M460.4,352.6c-15.9-7.2-33.7-17.4-49.5-31.8c5.1,46.4,29.4,79.5,71.4,98.4c17.1,7.6,34,11.6,46.7,13.6
				c12.8,2,21.3,1.3,21.5,1.3h344.2v53.3l-344.8,0.9l-0.1,0c-5.2-0.1-46.5-1.1-89.5-20.5c-14.4-6.5-34.3-19.5-48.7-31.7
				c12.8,92.4,108.8,109.7,136.1,112.9c3.9,0.5,7.8,0.4,11.7,0.4h335.2v53.4l-344.2,0.7c-12.1-0.5-48.5-3.5-85.9-20.4
				c-17.6-7.9-36.7-19.5-53.7-36.2c4,48.8,28,83.4,71.3,102.9c34,15.3,67.9,15,68.2,15c86.2-0.1,344.2,0,344.2,0v53.4L550.5,719
				c-1.9,0-45.2-0.2-90.1-20.5c-25.9-11.6-55.4-31.3-76.2-64.1c-20.8,32.8-50.2,52.4-76.1,64.1c-45,20.2-88.3,19.7-90.2,19.7v-53.4
				c5.2,0,126.3-5.9,138.7-117.8c-15.8,14.4-32.7,29-48.6,36.1c-45,20.2-88.3,19.7-90.2,19.7v-53.4c5.2,0,126.7-1.4,139.1-113.4
				c-15.8,14.4-33,24.6-48.9,31.8c-45,20.2-88.3,19.6-90.2,19.6v-53.3c5.2-0.1,127.2-1.4,139.6-113.4
				c-15.8,14.4-33.6,24.6-49.5,31.8c-45,20.2-88.3,19.6-90.2,19.6v-53.4c5.1-0.1,120.3-1.1,137.9-104.5c1.4-7.9,1.7-15.8,1.7-23.7
				v-2.6h53.4v1.7c0,8.9,0.4,17.8,2,26.5c7.4,40.9,30.7,70.4,69.4,87.8c33.6,15.1,66.8,14.8,68.1,14.9h344.3v53.4L550.5,373h-0.8
				C543.3,372.9,502.6,371.6,460.4,352.6z"/>
		</g>
		<g>
			<g>
				<path class="st0" d="M1828.4,605.2v-25.7h-8.8v-4.7h22.6v4.7h-8.8v25.7H1828.4z"/>
				<path class="st0" d="M1846.4,605.2v-30.3h4.8l9.7,23.2l9.7-23.2h4.8v30.3h-4.8v-20.1l-7.8,20.1h-3.8l-7.8-20.3v20.3H1846.4z"/>
			</g>
		</g>
	</g>
</g>
</svg>
