<?xml version="1.0" encoding="UTF-8" standalone="no"?>
<!-- Generator: Adobe Illustrator 25.4.1, SVG Export Plug-In . SVG Version: 6.00 Build 0)  -->

<svg
   version="1.1"
   x="0px"
   y="0px"
   viewBox="0 0 2225.3 909.9"
   style="enable-background:new 0 0 2225.3 909.9;"
   xml:space="preserve"
   id="svg1062"
   sodipodi:docname="af-logo-smol.svg"
   inkscape:version="1.1.1 (1:1.1+202109281954+c3084ef5ed)"
   xmlns:inkscape="http://www.inkscape.org/namespaces/inkscape"
   xmlns:sodipodi="http://sodipodi.sourceforge.net/DTD/sodipodi-0.dtd"
   xmlns="http://www.w3.org/2000/svg"
   xmlns:svg="http://www.w3.org/2000/svg"><defs
   id="defs1066" /><sodipodi:namedview
   id="namedview1064"
   pagecolor="#ffffff"
   bordercolor="#666666"
   borderopacity="1.0"
   inkscape:pageshadow="2"
   inkscape:pageopacity="0.0"
   inkscape:pagecheckerboard="0"
   showgrid="false"
   inkscape:zoom="0.55453197"
   inkscape:cx="1112.65"
   inkscape:cy="-947.64599"
   inkscape:window-width="1848"
   inkscape:window-height="1016"
   inkscape:window-x="72"
   inkscape:window-y="27"
   inkscape:window-maximized="1"
   inkscape:current-layer="svg1062" />
<style
   type="text/css"
   id="style962">
	.st0{fill:#015351;}
	.st1{fill:#F9D021;}
	.st2{fill:#26D780;}
	.st3{fill:#14DCB1;}
	.st4{fill:#F2C127;}
	.st5{fill:#005251;}
</style>
<g
   id="BG">
</g>

<rect
   style="fill:#00ffff;stroke:#ffffff;fill-opacity:1"
   id="rect1170"
   width="426.91449"
   height="161.69493"
   x="424.95135"
   y="-1438.3461" /><g
   id="LOGO"
   transform="translate(-52.871588,-1301.9192)">
	<g
   id="g1059">
		<g
   id="g967">
			<polygon
   class="st0"
   points="895.1,574.6 895,602.9 895.2,602.9 895.1,549.5 894.7,549.5 894.6,574.4 893.9,574.5 "
   id="polygon965" />
		</g>
		<g
   id="g1031">
			<g
   id="g1029">
				<g
   id="g971">
					<path
   class="st0"
   d="m 1086.6,493.8 -5.8,-20.7 h -60.3 l -5.8,20.7 h -41.6 l 57.6,-170.1 h 39.6 l 57.8,170.1 z m -57.4,-51.5 h 42.8 l -21.4,-75.6 z"
   id="path969" />
				</g>
				<g
   id="g975">
					<path
   class="st0"
   d="M 1142,493.8 V 376.7 h 37.2 v 17 c 2.6,-6 6.8,-10.9 12.8,-14.6 5.9,-3.7 12.8,-5.6 20.8,-5.6 18.5,0 30.7,7.2 36.7,21.6 3.2,-6.5 8.2,-11.7 14.8,-15.7 6.6,-4 14.2,-6 22.6,-6 27.7,0 41.6,15.9 41.6,47.6 v 72.7 h -37.4 V 428 c 0,-15.4 -5.8,-23.1 -17.5,-23.1 -13.1,0 -19.7,9.6 -19.7,28.7 v 60.3 h -37.4 v -66.1 c 0,-15.2 -5.8,-22.8 -17.2,-22.8 -6.5,0 -11.4,2.1 -14.8,6.4 -3.4,4.3 -5.1,11.7 -5.1,22.2 v 60.3 H 1142 Z"
   id="path973" />
				</g>
				<g
   id="g979">
					<path
   class="st0"
   d="m 1469.1,429.2 c 0,4.9 -0.3,10.3 -1,16.3 h -86.5 c 0.3,7.6 2.9,13.5 7.8,17.7 4.9,4.2 11.4,6.3 19.7,6.3 11.3,0 18.6,-3.6 21.9,-10.9 h 36.5 c -1.8,11.5 -8.1,20.9 -18.8,28.1 -10.8,7.2 -23.9,10.8 -39.5,10.8 -19.9,0 -35.6,-5.5 -47.1,-16.5 -11.5,-11 -17.3,-26.2 -17.3,-45.7 0,-19.1 5.7,-34.2 17.3,-45.3 11.5,-11.1 26.8,-16.6 45.9,-16.6 18.1,0 32.9,5.2 44.2,15.6 11.2,10.2 16.9,23.6 16.9,40.2 z m -87.5,-6.8 h 50.8 c -0.2,-7.8 -2.4,-13.8 -6.6,-18 -4.2,-4.2 -10.3,-6.3 -18.2,-6.3 -7.9,0 -14.2,2.2 -18.8,6.7 -4.7,4.4 -7.1,10.3 -7.2,17.6 z"
   id="path977" />
				</g>
				<g
   id="g983">
					<path
   class="st0"
   d="M 1486.5,493.8 V 376.7 h 37.2 v 24.5 c 1.9,-8.4 6,-14.9 12,-19.6 6.1,-4.6 12.8,-6.9 20.3,-6.9 3.9,0 7.1,0.3 9.7,1 v 34.5 c -4.4,-0.5 -8.1,-0.7 -11.2,-0.7 -20.6,0 -30.9,13 -30.9,39.1 v 45.2 z"
   id="path981" />
				</g>
				<g
   id="g987">
					<path
   class="st0"
   d="m 1617,359.7 c -4.4,4.4 -9.9,6.6 -16.5,6.6 -6.6,0 -12.1,-2.2 -16.4,-6.6 -4.3,-4.4 -6.4,-9.7 -6.4,-16 0,-6.5 2.1,-11.9 6.4,-16.3 4.3,-4.4 9.8,-6.6 16.4,-6.6 6.6,0 12.2,2.2 16.5,6.7 4.4,4.5 6.6,9.8 6.6,16.2 0,6.3 -2.2,11.6 -6.6,16 z m -35.2,134.1 V 376.7 h 37.2 v 117.1 z"
   id="path985" />
				</g>
				<g
   id="g991">
					<path
   class="st0"
   d="m 1699.2,497.5 c -19.1,0 -34.3,-5.7 -45.7,-17.1 -11.3,-11.4 -17,-26.4 -17,-45.1 0,-18.6 5.7,-33.6 17,-45 11.3,-11.3 26.6,-17 45.7,-17 17.3,0 31.4,4.3 42.3,12.9 10.9,8.6 17,20.3 18.5,35 h -37.2 c -2.8,-11 -10.5,-16.5 -23.3,-16.5 -8.1,0 -14.4,2.7 -19,8 -4.5,5.3 -6.8,12.9 -6.8,22.6 0,9.7 2.3,17.3 6.8,22.6 4.5,5.3 10.9,8 19,8 12.8,0 20.6,-5.2 23.3,-15.6 h 37.2 c -1.5,14.4 -7.6,25.9 -18.5,34.4 -10.9,8.5 -25,12.8 -42.3,12.8 z"
   id="path989" />
				</g>
				<g
   id="g995">
					<path
   class="st0"
   d="m 1827,497 c -17,0 -30.5,-5.7 -40.3,-17.3 -9.9,-11.5 -14.8,-26.3 -14.8,-44.5 0,-17.8 5.1,-32.6 15.3,-44.2 10.2,-11.7 23.6,-17.5 40.3,-17.5 8.3,0 15.6,1.8 22.1,5.3 6.5,3.6 11.3,8.4 14.6,14.6 v -16.8 h 36.9 v 117.1 h -36.9 v -16.5 c -3.2,5.8 -8.2,10.6 -14.9,14.2 -6.8,3.7 -14.2,5.6 -22.3,5.6 z m 10.7,-30.9 c 8.9,0 15.8,-2.9 20.7,-8.7 4.9,-5.8 7.3,-13.2 7.3,-22.1 0,-8.7 -2.4,-16 -7.3,-21.9 -4.9,-5.8 -11.7,-8.7 -20.7,-8.7 -8.4,0 -15.2,2.8 -20.3,8.5 -5.1,5.7 -7.7,13 -7.7,22.1 0,9.1 2.5,16.5 7.7,22.2 5.1,5.7 11.9,8.6 20.3,8.6 z"
   id="path993" />
				</g>
				<g
   id="g999">
					<path
   class="st0"
   d="M 1928.1,493.8 V 376.7 h 37.2 v 17 c 7,-13.4 19.6,-20.2 37.9,-20.2 28.5,0 42.8,16 42.8,47.9 v 72.4 h -37.4 v -60.3 c 0,-10 -1.6,-17.3 -4.7,-21.9 -3.2,-4.5 -8.5,-6.8 -15.9,-6.8 -15.1,0 -22.6,9.2 -22.6,27.7 v 61.2 h -37.3 z"
   id="path997" />
				</g>
				<g
   id="g1003">
					<path
   class="st0"
   d="M 987.2,717.1 V 547 h 104 v 33 h -64.6 v 46 h 64.6 v 32.3 h -64.6 v 58.8 z"
   id="path1001" />
				</g>
				<g
   id="g1007">
					<path
   class="st0"
   d="m 1217.2,703.3 c -11.7,11.7 -27.5,17.5 -47.3,17.5 -19.8,0 -35.6,-5.8 -47.4,-17.5 -11.8,-11.7 -17.7,-26.6 -17.7,-44.7 0,-18.1 5.9,-33 17.7,-44.6 11.8,-11.6 27.6,-17.4 47.4,-17.4 19.8,0 35.5,5.8 47.3,17.4 11.7,11.6 17.6,26.5 17.6,44.6 0,18.1 -5.9,33 -17.6,44.7 z m -47.3,-14.1 c 8.6,0 15.4,-2.8 20.4,-8.5 5,-5.7 7.5,-13 7.5,-22.1 0,-9.1 -2.5,-16.4 -7.5,-22.1 -5,-5.7 -11.8,-8.5 -20.4,-8.5 -8.7,0 -15.6,2.8 -20.5,8.5 -4.9,5.7 -7.4,13 -7.4,22.1 0,9.1 2.5,16.4 7.4,22.1 4.9,5.6 11.8,8.5 20.5,8.5 z"
   id="path1005" />
				</g>
				<g
   id="g1011">
					<path
   class="st0"
   d="M 1252.3,717.1 V 600 h 37.2 v 24.5 c 1.9,-8.4 6,-14.9 12,-19.6 6.1,-4.6 12.8,-6.9 20.3,-6.9 3.9,0 7.1,0.3 9.7,1 v 34.5 c -4.4,-0.5 -8.1,-0.7 -11.2,-0.7 -20.6,0 -30.9,13 -30.9,39.1 v 45.2 z"
   id="path1009" />
				</g>
				<g
   id="g1015">
					<path
   class="st0"
   d="m 1462,652.5 c 0,4.9 -0.3,10.3 -1,16.3 h -86.5 c 0.3,7.6 2.9,13.5 7.8,17.7 4.9,4.2 11.4,6.3 19.7,6.3 11.3,0 18.6,-3.6 21.9,-10.9 h 36.5 c -1.8,11.5 -8.1,20.9 -18.8,28.1 -10.8,7.2 -23.9,10.8 -39.5,10.8 -19.9,0 -35.6,-5.5 -47.1,-16.5 -11.5,-11 -17.3,-26.2 -17.3,-45.7 0,-19.1 5.7,-34.2 17.3,-45.3 11.5,-11.1 26.8,-16.6 45.9,-16.6 18.1,0 32.9,5.2 44.2,15.6 11.2,10.2 16.9,23.7 16.9,40.2 z m -87.5,-6.8 h 50.8 c -0.2,-7.8 -2.4,-13.8 -6.6,-18 -4.2,-4.2 -10.3,-6.3 -18.2,-6.3 -7.9,0 -14.2,2.2 -18.8,6.7 -4.6,4.4 -7,10.3 -7.2,17.6 z"
   id="path1013" />
				</g>
				<g
   id="g1019">
					<path
   class="st0"
   d="m 1533.1,720.8 c -16.8,0 -30.3,-3.6 -40.3,-10.9 -10.1,-7.3 -15.1,-16.6 -15.1,-27.9 h 36.9 c 0,4.1 1.8,7.4 5.3,10 3.6,2.6 8.2,3.9 13.9,3.9 4,0 7.3,-1 9.8,-2.9 2.5,-1.9 3.8,-4.6 3.8,-8 0,-5.3 -2.8,-8.7 -8.5,-10 l -28.7,-7.3 c -9.6,-2.4 -16.8,-6.6 -21.9,-12.4 -5,-5.8 -7.5,-13 -7.5,-21.4 0,-11 4.5,-20 13.6,-26.9 9.1,-6.9 21.2,-10.3 36.5,-10.3 16.8,0 29.8,3.2 38.8,9.7 9,6.5 13.5,15.4 13.5,26.7 h -36.7 c 0,-4 -1.4,-7.2 -4.3,-9.5 -2.8,-2.3 -6.8,-3.4 -11.8,-3.4 -4.1,0 -7.3,0.9 -9.7,2.7 -2.4,1.8 -3.6,4.1 -3.6,7 0,5.2 3.3,8.7 10,10.5 l 27.7,7.5 c 9.2,2.4 16.5,6.4 21.8,12 5.3,5.6 7.9,12.4 7.9,20.5 0,12.2 -4.6,21.9 -13.7,29.3 -9.3,7.4 -21.8,11.1 -37.7,11.1 z"
   id="path1017" />
				</g>
				<g
   id="g1023">
					<path
   class="st0"
   d="m 1669.5,688.2 c 5.2,0 9.5,-0.2 12.9,-0.7 v 29.6 c -7.1,1.3 -15.4,1.9 -24.8,1.9 -4.2,0 -7.9,-0.2 -11.2,-0.7 -3.3,-0.5 -6.9,-1.6 -10.9,-3.3 -4,-1.7 -7.4,-4 -10,-6.9 -2.6,-2.9 -4.8,-7.1 -6.7,-12.6 -1.9,-5.5 -2.8,-12 -2.8,-19.4 v -46.7 h -18.5 V 600 h 18.5 v -34.8 h 37.2 V 600 h 26.5 v 29.4 h -26.5 v 38.9 c 0,7.9 1.4,13.2 4.1,15.9 2.9,2.7 6.9,4 12.2,4 z"
   id="path1021" />
				</g>
				<g
   id="g1027">
					<path
   class="st0"
   d="m 1752.3,720.8 c -16.8,0 -30.3,-3.6 -40.3,-10.9 -10.1,-7.3 -15.1,-16.6 -15.1,-27.9 h 36.9 c 0,4.1 1.8,7.4 5.3,10 3.6,2.6 8.2,3.9 13.9,3.9 4,0 7.3,-1 9.8,-2.9 2.5,-1.9 3.8,-4.6 3.8,-8 0,-5.3 -2.8,-8.7 -8.5,-10 l -28.7,-7.3 c -9.6,-2.4 -16.8,-6.6 -21.9,-12.4 -5,-5.8 -7.5,-13 -7.5,-21.4 0,-11 4.5,-20 13.6,-26.9 9.1,-6.9 21.2,-10.3 36.5,-10.3 16.8,0 29.8,3.2 38.8,9.7 9,6.5 13.5,15.4 13.5,26.7 h -36.7 c 0,-4 -1.4,-7.2 -4.3,-9.5 -2.8,-2.3 -6.8,-3.4 -11.8,-3.4 -4.1,0 -7.3,0.9 -9.7,2.7 -2.4,1.8 -3.6,4.1 -3.6,7 0,5.2 3.3,8.7 10,10.5 l 27.7,7.5 c 9.2,2.4 16.5,6.4 21.8,12 5.3,5.6 7.9,12.4 7.9,20.5 0,12.2 -4.6,21.9 -13.7,29.3 -9.3,7.4 -21.8,11.1 -37.7,11.1 z"
   id="path1025" />
				</g>
			</g>
		</g>
		<path
   class="st1"
   d="M 894.6,465.5"
   id="path1033" />
		<g
   id="g1049">
			<g
   id="g1037">
				<path
   class="st2"
   d="m 894.7,372.2 v 62.1 0 l -344.3,0.8 c -0.1,0 -8.7,-0.1 -21.4,-2.2 -12.7,-2.1 -29.7,-6 -46.8,-13.7 -42.1,-18.9 -65.8,-52 -70.9,-98.4 15.8,14.4 33.1,24.5 49,31.8 42.2,19 83,20.4 89.3,20.4 h 0.8 z"
   id="path1035" />
			</g>
			<path
   class="st3"
   d="m 894.7,664.9 c 0,0 -257.9,0.7 -344.1,0.8 -0.4,0 -34.2,-0.4 -68.2,-15.7 C 439,630.5 415,595.8 411.1,547.1 c 17,16.8 36.1,28.3 53.7,36.2 37.4,16.9 73.7,19.9 85.9,20.4 l 344,-0.7 z"
   id="path1039" />
			<path
   class="st4"
   d="m 894.7,434.2 v 156.4 0 -41.1 l -335.2,0.8 c -4,0 -7.9,-0.2 -11.8,-0.7 -27.3,-3.2 -123.3,-21 -136.1,-113.5 14.4,12.2 34.4,25.2 48.8,31.7 43,19.3 84.4,20.4 89.5,20.5 h 0.1 l 344.8,-0.9 v -53.2 z"
   id="path1041" />
			<g
   id="g1045">
				<path
   class="st0"
   d="M 672,462"
   id="path1043" />
			</g>
			<path
   class="st5"
   d="m 460.4,352.6 c -15.9,-7.2 -33.7,-17.4 -49.5,-31.8 5.1,46.4 29.4,79.5 71.4,98.4 17.1,7.6 34,11.6 46.7,13.6 12.8,2 21.3,1.3 21.5,1.3 h 344.2 v 53.3 l -344.8,0.9 h -0.1 c -5.2,-0.1 -46.5,-1.1 -89.5,-20.5 -14.4,-6.5 -34.3,-19.5 -48.7,-31.7 12.8,92.4 108.8,109.7 136.1,112.9 3.9,0.5 7.8,0.4 11.7,0.4 h 335.2 v 53.4 l -344.2,0.7 c -12.1,-0.5 -48.5,-3.5 -85.9,-20.4 -17.6,-7.9 -36.7,-19.5 -53.7,-36.2 4,48.8 28,83.4 71.3,102.9 34,15.3 67.9,15 68.2,15 86.2,-0.1 344.2,0 344.2,0 v 53.4 l -344,0.8 c -1.9,0 -45.2,-0.2 -90.1,-20.5 -25.9,-11.6 -55.4,-31.3 -76.2,-64.1 -20.8,32.8 -50.2,52.4 -76.1,64.1 -45,20.2 -88.3,19.7 -90.2,19.7 v -53.4 c 5.2,0 126.3,-5.9 138.7,-117.8 -15.8,14.4 -32.7,29 -48.6,36.1 -45,20.2 -88.3,19.7 -90.2,19.7 v -53.4 c 5.2,0 126.7,-1.4 139.1,-113.4 -15.8,14.4 -33,24.6 -48.9,31.8 -45,20.2 -88.3,19.6 -90.2,19.6 V 434.1 C 223,434 345,432.7 357.4,320.7 c -15.8,14.4 -33.6,24.6 -49.5,31.8 -45,20.2 -88.3,19.6 -90.2,19.6 v -53.4 c 5.1,-0.1 120.3,-1.1 137.9,-104.5 1.4,-7.9 1.7,-15.8 1.7,-23.7 v -2.6 h 53.4 v 1.7 c 0,8.9 0.4,17.8 2,26.5 7.4,40.9 30.7,70.4 69.4,87.8 33.6,15.1 66.8,14.8 68.1,14.9 h 344.3 v 53.4 l -344,0.8 h -0.8 c -6.4,-0.1 -47.1,-1.4 -89.3,-20.4 z"
   id="path1047" />
		</g>
		<g
   id="g1057">
			<g
   id="g1055">
				<path
   class="st0"
   d="m 1828.4,605.2 v -25.7 h -8.8 v -4.7 h 22.6 v 4.7 h -8.8 v 25.7 z"
   id="path1051" />
				<path
   class="st0"
   d="m 1846.4,605.2 v -30.3 h 4.8 l 9.7,23.2 9.7,-23.2 h 4.8 v 30.3 h -4.8 v -20.1 l -7.8,20.1 h -3.8 l -7.8,-20.3 v 20.3 z"
   id="path1053" />
			</g>
		</g>
	</g>
</g></svg>
